 <svg  version="1.0" xmlns="http://www.w3.org/2000/svg"  width="500.000000pt" height="500.000000pt" viewBox="0 0 500.000000 500.000000"  preserveAspectRatio="xMidYMid meet">  <g transform="translate(0.000000,500.000000) scale(0.100000,-0.100000)" fill="#d34570" stroke="none"> <path d="M1206 4530 c-156 -25 -313 -94 -433 -190 -134 -107 -255 -301 -294 -470 -50 -218 -16 -513 90 -777 l21 -53 -106 0 c-82 0 -112 -4 -135 -17 -59 -35 -55 -123 6 -151 16 -8 81 -12 173 -12 l147 0 22 -48 c32 -69 72 -137 169 -283 226 -343 554 -725 1094 -1272 l295 -299 159 163 c87 90 220 227 295 304 535 550 860 955 1067 1327 l59 107 145 1 c96 0 153 5 170 13 58 29 61 114 6 148 -25 15 -51 19 -138 19 l-107 0 28 68 c32 77 58 156 65 192 2 14 12 66 22 115 26 133 25 353 -4 465 -43 170 -161 353 -302 466 -86 70 -225 139 -335 166 -126 31 -322 31 -449 0 -263 -65 -432 -230 -641 -626 -13 -25 -39 -40 -57 -34 -8 3 -43 57 -78 119 -129 232 -252 376 -386 456 -64 38 -174 88 -174 79 0 -2 -26 3 -57 10 -75 18 -261 26 -337 14z m199 -24 c112 -6 161 -14 230 -36 62 -21 189 -93 180 -102 -3 -3 10 -13 29 -22 19 -9 44 -32 56 -51 12 -19 26 -33 31 -29 5 3 9 0 9 -6 0 -6 11 -21 24 -33 30 -28 142 -200 191 -292 46 -89 61 -105 96 -105 32 0 61 33 104 120 15 30 31 57 35 60 4 3 19 27 35 55 42 76 77 125 139 189 31 33 56 62 56 65 0 3 12 14 28 24 15 9 49 33 76 52 26 19 53 32 59 28 5 -3 7 -1 4 4 -8 13 121 63 161 63 15 0 43 5 62 10 78 23 373 7 404 -21 6 -5 20 -9 31 -9 24 0 177 -76 215 -106 13 -10 34 -29 47 -41 13 -13 27 -23 31 -23 10 0 105 -106 134 -150 54 -80 71 -114 98 -191 16 -44 26 -88 23 -96 -4 -10 -2 -14 4 -10 11 7 33 -138 32 -214 0 -42 -20 -191 -33 -254 -22 -106 -32 -141 -64 -238 -45 -134 -45 -133 95 -135 122 -1 144 -11 141 -63 -2 -20 -5 -35 -7 -33 -2 2 -10 -5 -17 -15 -12 -17 -28 -19 -165 -19 l-152 1 -21 -29 c-11 -15 -21 -33 -22 -39 -1 -7 -14 -30 -28 -53 -14 -23 -26 -44 -26 -47 0 -3 -15 -28 -34 -56 -19 -27 -38 -58 -41 -69 -4 -11 -10 -20 -13 -20 -4 0 -16 -16 -26 -35 -11 -19 -24 -35 -29 -35 -6 0 -8 -3 -4 -6 6 -6 -28 -57 -70 -102 -13 -14 -23 -31 -23 -38 0 -8 -4 -14 -9 -14 -5 0 -12 -9 -16 -19 -3 -11 -15 -23 -26 -26 -10 -4 -17 -11 -14 -16 4 -5 1 -9 -5 -9 -6 0 -8 -4 -5 -10 3 -5 -3 -15 -15 -22 -11 -7 -20 -18 -20 -25 0 -7 -4 -13 -9 -13 -5 0 -18 -15 -29 -34 -11 -18 -33 -48 -48 -66 -88 -100 -112 -126 -136 -151 -16 -15 -28 -31 -28 -36 0 -6 -15 -24 -32 -40 -18 -17 -58 -59 -88 -93 -73 -83 -190 -207 -327 -346 -62 -63 -111 -114 -109 -114 6 0 -286 -291 -306 -304 -21 -15 -27 -11 -145 108 -68 69 -123 129 -123 135 0 6 -4 10 -8 8 -11 -3 -162 149 -162 163 0 6 -4 9 -8 8 -5 -2 -27 19 -50 45 -24 27 -77 84 -120 127 -74 76 -149 157 -229 249 -21 24 -59 67 -85 95 -26 28 -48 57 -48 65 0 8 -3 11 -6 8 -4 -4 -20 10 -35 31 -16 20 -40 49 -54 64 -14 15 -25 29 -25 32 0 3 -8 14 -18 24 -29 31 -52 62 -52 70 0 4 -14 20 -31 37 -16 16 -46 54 -66 85 -21 30 -45 63 -53 73 -9 9 -23 30 -31 45 -8 15 -22 36 -32 46 -9 11 -17 26 -17 33 0 7 -4 13 -10 13 -5 0 -10 7 -10 15 0 8 -4 15 -10 15 -5 0 -10 5 -10 12 0 6 -11 25 -24 42 -42 55 -117 204 -107 211 16 9 171 4 165 -6 -3 -5 0 -9 6 -9 6 0 15 -12 21 -27 39 -103 89 -199 116 -225 49 -46 87 -8 158 157 21 50 46 96 54 103 9 7 34 12 56 11 22 -2 54 4 70 12 33 16 49 57 155 404 86 281 82 270 94 249 5 -11 18 -57 27 -104 9 -47 24 -120 34 -164 9 -43 14 -85 11 -93 -3 -8 -2 -12 3 -9 8 5 20 -51 71 -314 39 -199 56 -262 79 -286 51 -53 81 -26 172 160 56 115 74 145 80 130 7 -16 8 -17 8 -2 1 13 9 17 30 15 16 -1 29 -4 28 -7 -1 -3 6 -36 15 -75 25 -105 66 -285 73 -325 4 -19 11 -48 16 -65 5 -16 25 -101 45 -189 44 -197 46 -201 83 -214 47 -16 75 12 90 90 7 35 17 83 21 108 5 25 21 119 35 210 14 91 29 188 34 215 5 28 18 96 27 153 13 73 22 101 31 98 7 -3 15 -1 19 5 4 7 10 6 19 -1 9 -8 15 -8 20 0 4 6 13 7 23 1 19 -9 71 9 89 31 9 11 25 61 74 238 l12 45 8 -35 c4 -19 12 -60 19 -90 6 -30 15 -80 20 -110 13 -86 79 -479 90 -535 5 -27 12 -74 15 -103 10 -81 63 -112 116 -66 8 8 25 62 38 121 13 60 25 115 28 123 9 24 10 29 27 130 9 52 23 124 32 160 8 36 16 70 16 77 2 13 46 24 53 13 3 -4 22 -2 42 5 34 11 43 22 85 105 44 87 47 91 54 64 4 -16 10 -31 13 -34 3 -3 17 -29 30 -58 14 -29 31 -58 39 -64 33 -28 264 -16 247 13 -4 5 -2 9 3 9 12 0 31 65 22 79 -4 7 -42 12 -98 13 l-90 2 -32 71 c-54 118 -70 155 -70 160 0 20 -48 55 -74 55 -42 0 -50 -7 -75 -65 -13 -27 -38 -80 -57 -118 -19 -37 -34 -74 -34 -82 0 -8 -9 -16 -20 -17 -11 0 -38 -2 -60 -4 -22 -1 -46 -3 -53 -3 -24 -2 -45 -62 -73 -205 l-28 -138 -12 58 c-6 33 -14 86 -18 119 -4 33 -13 94 -21 135 -19 94 -70 389 -86 494 -16 102 -51 137 -108 106 -23 -12 -34 -39 -71 -184 -17 -66 -39 -145 -49 -175 -10 -31 -24 -84 -31 -118 -7 -35 -16 -60 -21 -57 -5 3 -6 -2 -3 -10 7 -18 -23 -28 -79 -26 -103 4 -119 -6 -131 -80 -3 -19 -10 -59 -16 -89 -5 -29 -19 -112 -30 -185 -11 -72 -26 -153 -33 -181 l-14 -50 -12 57 c-7 32 -9 63 -5 69 4 7 3 9 -3 6 -5 -3 -15 18 -21 51 -6 31 -21 95 -32 142 -12 47 -26 115 -32 152 -18 108 -31 114 -234 109 l-50 -1 -33 -62 c-19 -35 -39 -70 -46 -78 -7 -8 -14 -22 -17 -29 -2 -8 -14 32 -26 90 -11 57 -32 158 -46 224 -13 66 -31 154 -39 195 -8 41 -27 129 -42 195 -14 66 -24 130 -22 142 2 12 1 20 -3 18 -4 -2 -15 33 -24 78 -10 45 -24 92 -31 103 -17 26 -59 38 -84 25 -22 -12 -24 -19 -89 -226 -54 -170 -151 -490 -179 -587 -3 -10 -9 -18 -13 -18 -5 0 -6 -10 -2 -22 3 -15 2 -19 -7 -14 -6 4 -11 4 -10 -1 5 -29 -4 -33 -64 -33 -72 0 -85 -9 -113 -75 -30 -73 -46 -105 -54 -105 -5 0 -21 32 -36 72 -43 108 -42 108 -210 108 -143 0 -155 -3 -160 -37 -1 -7 2 -13 6 -13 8 0 23 -34 25 -53 0 -4 6 -11 13 -16 7 -4 -55 -8 -138 -8 -83 0 -153 3 -156 8 -2 4 -10 6 -17 3 -7 -2 -18 9 -25 24 -10 23 -10 35 0 58 16 34 12 33 146 39 58 3 109 8 114 13 5 5 -1 37 -15 73 -31 81 -70 223 -87 314 -21 105 -18 373 4 460 20 79 56 165 68 165 4 0 8 9 8 20 0 11 5 20 12 20 6 0 9 3 5 6 -3 4 5 22 20 40 14 19 23 34 19 34 -5 0 19 27 81 92 56 59 188 156 252 185 95 44 275 84 336 76 11 -2 56 -5 100 -7z m246 -660 c4 -15 10 -47 13 -71 4 -24 24 -122 45 -217 22 -95 42 -191 45 -213 3 -22 24 -123 45 -225 22 -102 48 -227 58 -279 l19 -94 59 119 60 119 106 3 c77 2 109 -1 116 -10 10 -13 66 -230 77 -298 3 -19 21 -101 41 -182 19 -80 35 -158 35 -171 0 -14 5 -29 10 -32 6 -4 10 6 10 24 0 17 18 133 39 258 22 125 42 246 45 268 13 95 19 121 28 133 7 8 41 12 102 12 l91 0 28 108 c25 97 113 419 123 450 12 38 84 19 84 -23 0 -14 18 -126 40 -249 22 -123 42 -245 45 -272 4 -27 21 -134 40 -238 18 -104 31 -195 28 -201 -2 -7 0 -16 6 -19 6 -4 12 13 16 41 12 89 75 376 86 390 8 8 35 13 78 13 l66 0 33 78 c19 42 48 106 66 142 28 58 35 65 61 65 28 0 33 -7 72 -85 23 -47 52 -111 64 -142 l22 -58 97 0 98 0 -21 -45 -21 -45 -91 0 c-91 0 -134 14 -135 43 -1 7 -20 53 -44 102 l-43 90 -13 -30 c-53 -123 -86 -188 -103 -196 -10 -6 -41 -9 -69 -8 l-51 3 -28 -128 c-16 -71 -31 -147 -34 -170 -16 -106 -69 -323 -83 -338 -36 -42 -65 -8 -81 92 -6 41 -14 93 -17 115 -3 22 -23 139 -44 260 -21 121 -41 243 -45 270 -3 28 -16 111 -29 185 l-23 135 -12 -45 c-7 -25 -14 -51 -17 -59 -2 -8 -7 -28 -10 -45 -10 -63 -72 -259 -86 -267 -7 -5 -48 -9 -91 -8 -42 1 -79 0 -82 -3 -3 -2 -7 -22 -10 -44 -2 -21 -22 -140 -44 -264 -22 -124 -43 -247 -46 -275 -25 -206 -53 -305 -85 -305 -31 0 -72 113 -96 270 -3 19 -23 105 -44 190 -21 86 -41 173 -44 194 -5 33 -38 178 -52 226 -3 11 -17 15 -54 14 l-51 -2 -79 -159 c-43 -88 -86 -163 -95 -167 -24 -9 -52 9 -59 38 -14 57 -57 259 -60 289 -3 18 -23 115 -45 217 -22 102 -57 267 -78 367 -21 99 -41 179 -44 177 -4 -2 -10 -21 -13 -41 -4 -21 -24 -92 -45 -158 -96 -300 -133 -418 -136 -437 -21 -107 -41 -128 -125 -128 l-67 0 -64 -136 c-35 -74 -68 -139 -74 -144 -30 -25 -53 3 -118 141 l-66 139 -93 0 -93 0 -21 45 c-11 25 -20 46 -18 47 1 2 65 1 141 -2 l138 -5 47 -90 c26 -49 47 -98 48 -107 0 -37 17 -15 54 70 62 139 55 132 141 132 69 0 75 2 75 21 0 11 22 89 48 172 27 84 68 215 92 292 101 329 131 414 148 418 25 6 55 -16 63 -47z"/> <path d="M2248 3813 c7 -3 16 -2 19 1 4 3 -2 6 -13 5 -11 0 -14 -3 -6 -6z"/> </g> </svg> 